<svg width="1008" height="275" viewBox="0 0 1008 275" fill="none" xmlns="http://www.w3.org/2000/svg">
<path d="M870.305 -6.01031e-06C946.244 -2.69091e-06 1007.8 61.5609 1007.8 137.5V137.5C1007.8 213.439 946.244 275 870.305 275L0.804675 275L0.804688 -4.40174e-05L870.305 -6.01031e-06Z" fill="#7AE2CF"/>
<path d="M870.471 46C921.005 46 961.971 86.966 961.971 137.5V137.5C961.971 188.034 921.005 229 870.471 229L0.971183 229L0.971191 46L870.471 46Z" fill="#077A7D"/>
<path d="M870.638 92C895.767 92 916.138 112.371 916.138 137.5V137.5C916.138 162.629 895.767 183 870.638 183L1.13769 183L1.1377 92L870.638 92Z" fill="#06202B"/>
</svg>
