<svg width="1440" height="1011" viewBox="0 0 1440 1011" fill="none" xmlns="http://www.w3.org/2000/svg">
<path d="M1440 981.661C1384.4 946.456 1317.26 909.273 1252.29 911.893C1128.29 916.893 1162.29 981.393 1104.29 1005.39C1043.98 1030.35 944.795 963.393 851.295 963.393C757.795 963.393 740.795 911.893 633.795 911.893C526.795 911.893 531.795 963.393 465.295 963.393C398.795 963.393 291.795 908.893 188.295 895.393C115.855 885.944 59.089 943.606 0 979.066V740.893H1440V981.661Z" fill="#7AE2CF"/>
<path d="M1440 919.117C1394.74 910.111 1333.59 881.296 1272.79 861.893C1155.29 824.393 1048.29 892.893 954.795 892.893C855.971 892.893 760.537 940.393 685.537 936.893C610.537 933.393 556.037 855.393 439.037 861.893C322.037 868.393 289.537 906.393 177.537 911.393C88.8306 915.353 46.5434 884.499 0 859.57V768.212C5.02955 763.641 9.86855 758.873 14.2539 753.893H1440V919.117Z" fill="#077A7D"/>
<path d="M1191 1.39263C1321.62 -5.69312 1399.48 15.6951 1440 33.1583V471.893H0V48.4112C46.9626 42.5614 135.844 33.5634 242.5 32.8926C401.5 31.8926 560.5 68.8927 718 68.8926C875.5 68.8926 979 12.8926 1191 1.39263Z" fill="#06202B"/>
<path d="M1440 832.225C1396.67 865.122 1313.77 906.647 1231.51 880.393C1114.01 842.893 1039.79 806.893 946.295 838.893C852.795 870.893 761.295 810.893 686.295 807.393C611.295 803.893 544.512 899.393 427.512 905.893C310.512 912.393 259.295 802.393 147.295 807.393C69.6265 810.86 35.5827 856.164 0 875.61V730.893H1440V832.225Z" fill="#06202B"/>
<rect y="377" width="1440" height="393" fill="#06202B"/>
</svg>
