<svg width="1440" height="714" viewBox="0 0 1440 714" fill="none" xmlns="http://www.w3.org/2000/svg">
<path d="M1440 683.769C1384.4 648.563 1317.26 611.381 1252.29 614C1128.29 619 1162.29 683.5 1104.29 707.5C1043.98 732.456 944.795 665.5 851.295 665.5C757.795 665.5 740.795 614 633.795 614C526.795 614 531.795 665.5 465.295 665.5C398.795 665.5 291.795 611 188.295 597.5C115.855 588.051 59.089 645.713 0 681.173V443H1440V683.769Z" fill="#7AE2CF"/>
<path d="M1440 621.225C1394.74 612.218 1333.59 583.404 1272.79 564C1155.29 526.5 1048.29 595 954.795 595C855.971 595 760.537 642.5 685.537 639C610.537 635.5 556.037 557.5 439.037 564C322.037 570.5 289.537 608.5 177.537 613.5C88.8306 617.46 46.5434 586.607 0 561.677V470.319C5.02955 465.748 9.86855 460.981 14.2539 456H1440V621.225Z" fill="#077A7D"/>
<path d="M1191 1.49993C1321.62 -5.58582 1399.48 15.8024 1440 33.2656V472H0V48.5185C46.9626 42.6687 135.844 33.6707 242.5 32.9999C401.5 31.9999 560.5 69 718 68.9999C875.5 68.9999 979 12.9999 1191 1.49993Z" fill="#06202B"/>
<path d="M1440 534.332C1396.67 567.229 1313.77 608.754 1231.51 582.5C1114.01 545 1039.79 509 946.295 541C852.795 573 761.295 513 686.295 509.5C611.295 506 544.512 601.5 427.512 608C310.512 614.5 259.295 504.5 147.295 509.5C69.6265 512.967 35.5827 558.271 0 577.717V433H1440V534.332Z" fill="#06202B"/>
</svg>
