<svg width="1440" height="2388" viewBox="0 0 1440 2388" fill="none" xmlns="http://www.w3.org/2000/svg">
<path d="M1440 2358.66C1384.4 2323.46 1317.26 2286.27 1252.29 2288.89C1128.3 2293.89 1162.29 2358.39 1104.29 2382.39C1043.98 2407.35 944.795 2340.39 851.295 2340.39C757.795 2340.39 740.795 2288.89 633.795 2288.89C526.795 2288.89 531.795 2340.39 465.295 2340.39C398.795 2340.39 291.795 2285.89 188.295 2272.39C115.855 2262.94 59.089 2320.61 0 2356.07V2117.89H1440V2358.66Z" fill="#7AE2CF"/>
<path d="M1440 2296.12C1394.74 2287.11 1333.59 2258.3 1272.79 2238.89C1155.29 2201.39 1048.29 2269.89 954.795 2269.89C855.971 2269.89 760.537 2317.39 685.537 2313.89C610.537 2310.39 556.037 2232.39 439.037 2238.89C322.037 2245.39 289.537 2283.39 177.537 2288.39C88.8306 2292.35 46.5434 2261.5 0 2236.57V2145.21C5.02955 2140.64 9.86855 2135.87 14.2539 2130.89H1440V2296.12Z" fill="#077A7D"/>
<path d="M1191 1.39263C1321.62 -5.69312 1399.48 15.6951 1440 33.1583V471.893H0V48.4112C46.9626 42.5614 135.844 33.5634 242.5 32.8926C401.5 31.8926 560.5 68.8927 718 68.8926C875.5 68.8926 979 12.8926 1191 1.39263Z" fill="#06202B"/>
<path d="M1440 2209.22C1396.67 2242.12 1313.77 2283.65 1231.51 2257.39C1114.01 2219.89 1039.79 2183.89 946.295 2215.89C852.795 2247.89 761.295 2187.89 686.295 2184.39C611.295 2180.89 544.512 2276.39 427.512 2282.89C310.512 2289.39 259.295 2179.39 147.295 2184.39C69.6265 2187.86 35.5827 2233.16 0 2252.61V2107.89H1440V2209.22Z" fill="#06202B"/>
<path d="M0 361H1440V2147H0V361Z" fill="#06202B"/>
</svg>
