<svg width="1440" height="1540" viewBox="0 0 1440 1540" fill="none" xmlns="http://www.w3.org/2000/svg">
<path d="M1440 1510.66C1384.4 1475.46 1317.26 1438.27 1252.29 1440.89C1128.29 1445.89 1162.29 1510.39 1104.29 1534.39C1043.98 1559.35 944.795 1492.39 851.295 1492.39C757.795 1492.39 740.795 1440.89 633.795 1440.89C526.795 1440.89 531.795 1492.39 465.295 1492.39C398.795 1492.39 291.795 1437.89 188.295 1424.39C115.855 1414.94 59.089 1472.61 0 1508.07V1269.89H1440V1510.66Z" fill="#7AE2CF"/>
<path d="M1440 1448.12C1394.74 1439.11 1333.59 1410.3 1272.79 1390.89C1155.29 1353.39 1048.29 1421.89 954.795 1421.89C855.971 1421.89 760.537 1469.39 685.537 1465.89C610.537 1462.39 556.037 1384.39 439.037 1390.89C322.037 1397.39 289.537 1435.39 177.537 1440.39C88.8306 1444.35 46.5434 1413.5 0 1388.57V1297.21C5.02955 1292.64 9.86855 1287.87 14.2539 1282.89H1440V1448.12Z" fill="#077A7D"/>
<path d="M1191 1.39263C1321.62 -5.69312 1399.48 15.6951 1440 33.1583V471.893H0V48.4112C46.9626 42.5614 135.844 33.5634 242.5 32.8926C401.5 31.8926 560.5 68.8927 718 68.8926C875.5 68.8926 979 12.8926 1191 1.39263Z" fill="#06202B"/>
<path d="M1440 1361.22C1396.67 1394.12 1313.77 1435.65 1231.51 1409.39C1114.01 1371.89 1039.79 1335.89 946.295 1367.89C852.795 1399.89 761.295 1339.89 686.295 1336.39C611.295 1332.89 544.512 1428.39 427.512 1434.89C310.512 1441.39 259.295 1331.39 147.295 1336.39C69.6265 1339.86 35.5827 1385.16 0 1404.61V1259.89H1440V1361.22Z" fill="#06202B"/>
<rect y="422" width="1440" height="877" fill="#06202B"/>
</svg>
